<?xml version="1.0" encoding="UTF-8"?>
<svg xmlns="http://www.w3.org/2000/svg" viewBox="0 0 512 512" width="512" height="512">
  <title>Thalyn — A3 gapped-T sigil</title>
  <desc>
    Geometry sourced from docs/design/icon-direction.md §4.2.
    Crossbar 16%×58% at upper third; stem 9% × (4% gap → 75% Y);
    background squircle in dark indigo; mark tint
    oklch(70% 0.15 250). Source of truth for the v0.38 icon ship.
  </desc>
  <defs>
    <clipPath id="squircle">
      <path d="M 512.000 256.000 L 511.961 296.104 L 511.846 312.707 L 511.653 325.434 L 511.383 336.148 L 511.036 345.567 L 510.611 354.062 L 510.109 361.850 L 509.529 369.073 L 508.871 375.829 L 508.135 382.190 L 507.321 388.209 L 506.428 393.928 L 505.456 399.379 L 504.405 404.588 L 503.274 409.578 L 502.064 414.365 L 500.773 418.966 L 499.401 423.393 L 497.947 427.656 L 496.411 431.765 L 494.793 435.729 L 493.091 439.554 L 491.305 443.247 L 489.433 446.814 L 487.476 450.258 L 485.432 453.585 L 483.300 456.798 L 481.078 459.901 L 478.765 462.897 L 476.361 465.789 L 473.863 468.579 L 471.269 471.269 L 468.579 473.863 L 465.789 476.361 L 462.897 478.765 L 459.901 481.078 L 456.798 483.300 L 453.585 485.432 L 450.258 487.476 L 446.814 489.433 L 443.247 491.305 L 439.554 493.091 L 435.729 494.793 L 431.765 496.411 L 427.656 497.947 L 423.393 499.401 L 418.966 500.773 L 414.365 502.064 L 409.578 503.274 L 404.588 504.405 L 399.379 505.456 L 393.928 506.428 L 388.209 507.321 L 382.190 508.135 L 375.829 508.871 L 369.073 509.529 L 361.850 510.109 L 354.062 510.611 L 345.567 511.036 L 336.148 511.383 L 325.434 511.653 L 312.707 511.846 L 296.104 511.961 L 256.000 512.000 L 215.896 511.961 L 199.293 511.846 L 186.566 511.653 L 175.852 511.383 L 166.433 511.036 L 157.938 510.611 L 150.150 510.109 L 142.927 509.529 L 136.171 508.871 L 129.810 508.135 L 123.791 507.321 L 118.072 506.428 L 112.621 505.456 L 107.412 504.405 L 102.422 503.274 L 97.635 502.064 L 93.034 500.773 L 88.607 499.401 L 84.344 497.947 L 80.235 496.411 L 76.271 494.793 L 72.446 493.091 L 68.753 491.305 L 65.186 489.433 L 61.742 487.476 L 58.415 485.432 L 55.202 483.300 L 52.099 481.078 L 49.103 478.765 L 46.211 476.361 L 43.421 473.863 L 40.731 471.269 L 38.137 468.579 L 35.639 465.789 L 33.235 462.897 L 30.922 459.901 L 28.700 456.798 L 26.568 453.585 L 24.524 450.258 L 22.567 446.814 L 20.695 443.247 L 18.909 439.554 L 17.207 435.729 L 15.589 431.765 L 14.053 427.656 L 12.599 423.393 L 11.227 418.966 L 9.936 414.365 L 8.726 409.578 L 7.595 404.588 L 6.544 399.379 L 5.572 393.928 L 4.679 388.209 L 3.865 382.190 L 3.129 375.829 L 2.471 369.073 L 1.891 361.850 L 1.389 354.062 L 0.964 345.567 L 0.617 336.148 L 0.347 325.434 L 0.154 312.707 L 0.039 296.104 L 0.000 256.000 L 0.039 215.896 L 0.154 199.293 L 0.347 186.566 L 0.617 175.852 L 0.964 166.433 L 1.389 157.938 L 1.891 150.150 L 2.471 142.927 L 3.129 136.171 L 3.865 129.810 L 4.679 123.791 L 5.572 118.072 L 6.544 112.621 L 7.595 107.412 L 8.726 102.422 L 9.936 97.635 L 11.227 93.034 L 12.599 88.607 L 14.053 84.344 L 15.589 80.235 L 17.207 76.271 L 18.909 72.446 L 20.695 68.753 L 22.567 65.186 L 24.524 61.742 L 26.568 58.415 L 28.700 55.202 L 30.922 52.099 L 33.235 49.103 L 35.639 46.211 L 38.137 43.421 L 40.731 40.731 L 43.421 38.137 L 46.211 35.639 L 49.103 33.235 L 52.099 30.922 L 55.202 28.700 L 58.415 26.568 L 61.742 24.524 L 65.186 22.567 L 68.753 20.695 L 72.446 18.909 L 76.271 17.207 L 80.235 15.589 L 84.344 14.053 L 88.607 12.599 L 93.034 11.227 L 97.635 9.936 L 102.422 8.726 L 107.412 7.595 L 112.621 6.544 L 118.072 5.572 L 123.791 4.679 L 129.810 3.865 L 136.171 3.129 L 142.927 2.471 L 150.150 1.891 L 157.938 1.389 L 166.433 0.964 L 175.852 0.617 L 186.566 0.347 L 199.293 0.154 L 215.896 0.039 L 256.000 0.000 L 296.104 0.039 L 312.707 0.154 L 325.434 0.347 L 336.148 0.617 L 345.567 0.964 L 354.062 1.389 L 361.850 1.891 L 369.073 2.471 L 375.829 3.129 L 382.190 3.865 L 388.209 4.679 L 393.928 5.572 L 399.379 6.544 L 404.588 7.595 L 409.578 8.726 L 414.365 9.936 L 418.966 11.227 L 423.393 12.599 L 427.656 14.053 L 431.765 15.589 L 435.729 17.207 L 439.554 18.909 L 443.247 20.695 L 446.814 22.567 L 450.258 24.524 L 453.585 26.568 L 456.798 28.700 L 459.901 30.922 L 462.897 33.235 L 465.789 35.639 L 468.579 38.137 L 471.269 40.731 L 473.863 43.421 L 476.361 46.211 L 478.765 49.103 L 481.078 52.099 L 483.300 55.202 L 485.432 58.415 L 487.476 61.742 L 489.433 65.186 L 491.305 68.753 L 493.091 72.446 L 494.793 76.271 L 496.411 80.235 L 497.947 84.344 L 499.401 88.607 L 500.773 93.034 L 502.064 97.635 L 503.274 102.422 L 504.405 107.412 L 505.456 112.621 L 506.428 118.072 L 507.321 123.791 L 508.135 129.810 L 508.871 136.171 L 509.529 142.927 L 510.109 150.150 L 510.611 157.938 L 511.036 166.433 L 511.383 175.852 L 511.653 186.566 L 511.846 199.293 L 511.961 215.896 Z" />
    </clipPath>
  </defs>
  <g clip-path="url(#squircle)">
    <path d="M 512.000 256.000 L 511.961 296.104 L 511.846 312.707 L 511.653 325.434 L 511.383 336.148 L 511.036 345.567 L 510.611 354.062 L 510.109 361.850 L 509.529 369.073 L 508.871 375.829 L 508.135 382.190 L 507.321 388.209 L 506.428 393.928 L 505.456 399.379 L 504.405 404.588 L 503.274 409.578 L 502.064 414.365 L 500.773 418.966 L 499.401 423.393 L 497.947 427.656 L 496.411 431.765 L 494.793 435.729 L 493.091 439.554 L 491.305 443.247 L 489.433 446.814 L 487.476 450.258 L 485.432 453.585 L 483.300 456.798 L 481.078 459.901 L 478.765 462.897 L 476.361 465.789 L 473.863 468.579 L 471.269 471.269 L 468.579 473.863 L 465.789 476.361 L 462.897 478.765 L 459.901 481.078 L 456.798 483.300 L 453.585 485.432 L 450.258 487.476 L 446.814 489.433 L 443.247 491.305 L 439.554 493.091 L 435.729 494.793 L 431.765 496.411 L 427.656 497.947 L 423.393 499.401 L 418.966 500.773 L 414.365 502.064 L 409.578 503.274 L 404.588 504.405 L 399.379 505.456 L 393.928 506.428 L 388.209 507.321 L 382.190 508.135 L 375.829 508.871 L 369.073 509.529 L 361.850 510.109 L 354.062 510.611 L 345.567 511.036 L 336.148 511.383 L 325.434 511.653 L 312.707 511.846 L 296.104 511.961 L 256.000 512.000 L 215.896 511.961 L 199.293 511.846 L 186.566 511.653 L 175.852 511.383 L 166.433 511.036 L 157.938 510.611 L 150.150 510.109 L 142.927 509.529 L 136.171 508.871 L 129.810 508.135 L 123.791 507.321 L 118.072 506.428 L 112.621 505.456 L 107.412 504.405 L 102.422 503.274 L 97.635 502.064 L 93.034 500.773 L 88.607 499.401 L 84.344 497.947 L 80.235 496.411 L 76.271 494.793 L 72.446 493.091 L 68.753 491.305 L 65.186 489.433 L 61.742 487.476 L 58.415 485.432 L 55.202 483.300 L 52.099 481.078 L 49.103 478.765 L 46.211 476.361 L 43.421 473.863 L 40.731 471.269 L 38.137 468.579 L 35.639 465.789 L 33.235 462.897 L 30.922 459.901 L 28.700 456.798 L 26.568 453.585 L 24.524 450.258 L 22.567 446.814 L 20.695 443.247 L 18.909 439.554 L 17.207 435.729 L 15.589 431.765 L 14.053 427.656 L 12.599 423.393 L 11.227 418.966 L 9.936 414.365 L 8.726 409.578 L 7.595 404.588 L 6.544 399.379 L 5.572 393.928 L 4.679 388.209 L 3.865 382.190 L 3.129 375.829 L 2.471 369.073 L 1.891 361.850 L 1.389 354.062 L 0.964 345.567 L 0.617 336.148 L 0.347 325.434 L 0.154 312.707 L 0.039 296.104 L 0.000 256.000 L 0.039 215.896 L 0.154 199.293 L 0.347 186.566 L 0.617 175.852 L 0.964 166.433 L 1.389 157.938 L 1.891 150.150 L 2.471 142.927 L 3.129 136.171 L 3.865 129.810 L 4.679 123.791 L 5.572 118.072 L 6.544 112.621 L 7.595 107.412 L 8.726 102.422 L 9.936 97.635 L 11.227 93.034 L 12.599 88.607 L 14.053 84.344 L 15.589 80.235 L 17.207 76.271 L 18.909 72.446 L 20.695 68.753 L 22.567 65.186 L 24.524 61.742 L 26.568 58.415 L 28.700 55.202 L 30.922 52.099 L 33.235 49.103 L 35.639 46.211 L 38.137 43.421 L 40.731 40.731 L 43.421 38.137 L 46.211 35.639 L 49.103 33.235 L 52.099 30.922 L 55.202 28.700 L 58.415 26.568 L 61.742 24.524 L 65.186 22.567 L 68.753 20.695 L 72.446 18.909 L 76.271 17.207 L 80.235 15.589 L 84.344 14.053 L 88.607 12.599 L 93.034 11.227 L 97.635 9.936 L 102.422 8.726 L 107.412 7.595 L 112.621 6.544 L 118.072 5.572 L 123.791 4.679 L 129.810 3.865 L 136.171 3.129 L 142.927 2.471 L 150.150 1.891 L 157.938 1.389 L 166.433 0.964 L 175.852 0.617 L 186.566 0.347 L 199.293 0.154 L 215.896 0.039 L 256.000 0.000 L 296.104 0.039 L 312.707 0.154 L 325.434 0.347 L 336.148 0.617 L 345.567 0.964 L 354.062 1.389 L 361.850 1.891 L 369.073 2.471 L 375.829 3.129 L 382.190 3.865 L 388.209 4.679 L 393.928 5.572 L 399.379 6.544 L 404.588 7.595 L 409.578 8.726 L 414.365 9.936 L 418.966 11.227 L 423.393 12.599 L 427.656 14.053 L 431.765 15.589 L 435.729 17.207 L 439.554 18.909 L 443.247 20.695 L 446.814 22.567 L 450.258 24.524 L 453.585 26.568 L 456.798 28.700 L 459.901 30.922 L 462.897 33.235 L 465.789 35.639 L 468.579 38.137 L 471.269 40.731 L 473.863 43.421 L 476.361 46.211 L 478.765 49.103 L 481.078 52.099 L 483.300 55.202 L 485.432 58.415 L 487.476 61.742 L 489.433 65.186 L 491.305 68.753 L 493.091 72.446 L 494.793 76.271 L 496.411 80.235 L 497.947 84.344 L 499.401 88.607 L 500.773 93.034 L 502.064 97.635 L 503.274 102.422 L 504.405 107.412 L 505.456 112.621 L 506.428 118.072 L 507.321 123.791 L 508.135 129.810 L 508.871 136.171 L 509.529 142.927 L 510.109 150.150 L 510.611 157.938 L 511.036 166.433 L 511.383 175.852 L 511.653 186.566 L 511.846 199.293 L 511.961 215.896 Z" fill="#0D0A1A" />
    <g transform="translate(30.720 30.720)">
      <path d="M 451.000 225.500 L 450.966 260.826 L 450.864 275.451 L 450.694 286.662 L 450.456 296.099 L 450.150 304.396 L 449.776 311.879 L 449.334 318.739 L 448.823 325.101 L 448.244 331.053 L 447.595 336.656 L 446.878 341.958 L 446.092 346.995 L 445.236 351.796 L 444.310 356.385 L 443.314 360.780 L 442.248 364.997 L 441.110 369.050 L 439.902 372.949 L 438.621 376.705 L 437.269 380.325 L 435.843 383.816 L 434.344 387.186 L 432.770 390.439 L 431.122 393.580 L 429.398 396.614 L 427.597 399.544 L 425.719 402.375 L 423.762 405.108 L 421.725 407.747 L 419.607 410.294 L 417.407 412.752 L 415.122 415.122 L 412.752 417.407 L 410.294 419.607 L 407.747 421.725 L 405.108 423.762 L 402.375 425.719 L 399.544 427.597 L 396.614 429.398 L 393.580 431.122 L 390.439 432.770 L 387.186 434.344 L 383.816 435.843 L 380.325 437.269 L 376.705 438.621 L 372.949 439.902 L 369.050 441.110 L 364.997 442.248 L 360.780 443.314 L 356.385 444.310 L 351.796 445.236 L 346.995 446.092 L 341.958 446.878 L 336.656 447.595 L 331.053 448.244 L 325.101 448.823 L 318.739 449.334 L 311.879 449.776 L 304.396 450.150 L 296.099 450.456 L 286.662 450.694 L 275.451 450.864 L 260.826 450.966 L 225.500 451.000 L 190.174 450.966 L 175.549 450.864 L 164.338 450.694 L 154.901 450.456 L 146.604 450.150 L 139.121 449.776 L 132.261 449.334 L 125.899 448.823 L 119.947 448.244 L 114.344 447.595 L 109.042 446.878 L 104.005 446.092 L 99.204 445.236 L 94.615 444.310 L 90.220 443.314 L 86.003 442.248 L 81.950 441.110 L 78.051 439.902 L 74.295 438.621 L 70.675 437.269 L 67.184 435.843 L 63.814 434.344 L 60.561 432.770 L 57.420 431.122 L 54.386 429.398 L 51.456 427.597 L 48.625 425.719 L 45.892 423.762 L 43.253 421.725 L 40.706 419.607 L 38.248 417.407 L 35.878 415.122 L 33.593 412.752 L 31.393 410.294 L 29.275 407.747 L 27.238 405.108 L 25.281 402.375 L 23.403 399.544 L 21.602 396.614 L 19.878 393.580 L 18.230 390.439 L 16.656 387.186 L 15.157 383.816 L 13.731 380.325 L 12.379 376.705 L 11.098 372.949 L 9.890 369.050 L 8.752 364.997 L 7.686 360.780 L 6.690 356.385 L 5.764 351.796 L 4.908 346.995 L 4.122 341.958 L 3.405 336.656 L 2.756 331.053 L 2.177 325.101 L 1.666 318.739 L 1.224 311.879 L 0.850 304.396 L 0.544 296.099 L 0.306 286.662 L 0.136 275.451 L 0.034 260.826 L 0.000 225.500 L 0.034 190.174 L 0.136 175.549 L 0.306 164.338 L 0.544 154.901 L 0.850 146.604 L 1.224 139.121 L 1.666 132.261 L 2.177 125.899 L 2.756 119.947 L 3.405 114.344 L 4.122 109.042 L 4.908 104.005 L 5.764 99.204 L 6.690 94.615 L 7.686 90.220 L 8.752 86.003 L 9.890 81.950 L 11.098 78.051 L 12.379 74.295 L 13.731 70.675 L 15.157 67.184 L 16.656 63.814 L 18.230 60.561 L 19.878 57.420 L 21.602 54.386 L 23.403 51.456 L 25.281 48.625 L 27.238 45.892 L 29.275 43.253 L 31.393 40.706 L 33.593 38.248 L 35.878 35.878 L 38.248 33.593 L 40.706 31.393 L 43.253 29.275 L 45.892 27.238 L 48.625 25.281 L 51.456 23.403 L 54.386 21.602 L 57.420 19.878 L 60.561 18.230 L 63.814 16.656 L 67.184 15.157 L 70.675 13.731 L 74.295 12.379 L 78.051 11.098 L 81.950 9.890 L 86.003 8.752 L 90.220 7.686 L 94.615 6.690 L 99.204 5.764 L 104.005 4.908 L 109.042 4.122 L 114.344 3.405 L 119.947 2.756 L 125.899 2.177 L 132.261 1.666 L 139.121 1.224 L 146.604 0.850 L 154.901 0.544 L 164.338 0.306 L 175.549 0.136 L 190.174 0.034 L 225.500 0.000 L 260.826 0.034 L 275.451 0.136 L 286.662 0.306 L 296.099 0.544 L 304.396 0.850 L 311.879 1.224 L 318.739 1.666 L 325.101 2.177 L 331.053 2.756 L 336.656 3.405 L 341.958 4.122 L 346.995 4.908 L 351.796 5.764 L 356.385 6.690 L 360.780 7.686 L 364.997 8.752 L 369.050 9.890 L 372.949 11.098 L 376.705 12.379 L 380.325 13.731 L 383.816 15.157 L 387.186 16.656 L 390.439 18.230 L 393.580 19.878 L 396.614 21.602 L 399.544 23.403 L 402.375 25.281 L 405.108 27.238 L 407.747 29.275 L 410.294 31.393 L 412.752 33.593 L 415.122 35.878 L 417.407 38.248 L 419.607 40.706 L 421.725 43.253 L 423.762 45.892 L 425.719 48.625 L 427.597 51.456 L 429.398 54.386 L 431.122 57.420 L 432.770 60.561 L 434.344 63.814 L 435.843 67.184 L 437.269 70.675 L 438.621 74.295 L 439.902 78.051 L 441.110 81.950 L 442.248 86.003 L 443.314 90.220 L 444.310 94.615 L 445.236 99.204 L 446.092 104.005 L 446.878 109.042 L 447.595 114.344 L 448.244 119.947 L 448.823 125.899 L 449.334 132.261 L 449.776 139.121 L 450.150 146.604 L 450.456 154.901 L 450.694 164.338 L 450.864 175.549 L 450.966 190.174 Z" fill="none" stroke="#6B70A8" stroke-opacity="0.157" stroke-width="4" />
    </g>
    <rect x="107.520" y="129.707" width="296.960" height="81.920" fill="#4BA3F7" />
    <rect x="232.960" y="232.107" width="46.080" height="151.893" fill="#4BA3F7" />
  </g>
</svg>
