<?xml version="1.0" encoding="UTF-8"?>
<svg xmlns="http://www.w3.org/2000/svg" viewBox="0 0 1024 1024" width="1024" height="1024">
  <title>Thalyn — A3 gapped-T sigil</title>
  <desc>
    Geometry sourced from docs/design/icon-direction.md §4.2.
    Crossbar 16%×58% at upper third; stem 9% × (4% gap → 75% Y);
    background squircle in dark indigo; mark tint
    oklch(70% 0.15 250). Source of truth for the v0.38 icon ship.
  </desc>
  <defs>
    <clipPath id="squircle">
      <path d="M 1024.000 512.000 L 1023.923 592.208 L 1023.692 625.414 L 1023.306 650.869 L 1022.766 672.295 L 1022.071 691.135 L 1021.222 708.124 L 1020.217 723.699 L 1019.057 738.145 L 1017.741 751.658 L 1016.270 764.380 L 1014.641 776.419 L 1012.855 787.856 L 1010.912 798.757 L 1008.810 809.176 L 1006.549 819.155 L 1004.127 828.730 L 1001.545 837.932 L 998.801 846.785 L 995.894 855.312 L 992.823 863.531 L 989.586 871.458 L 986.182 879.109 L 982.609 886.495 L 978.867 893.627 L 974.952 900.516 L 970.864 907.170 L 966.599 913.596 L 962.156 919.802 L 957.531 925.794 L 952.722 931.577 L 947.726 937.158 L 942.539 942.539 L 937.158 947.726 L 931.577 952.722 L 925.794 957.531 L 919.802 962.156 L 913.596 966.599 L 907.170 970.864 L 900.516 974.952 L 893.627 978.867 L 886.495 982.609 L 879.109 986.182 L 871.458 989.586 L 863.531 992.823 L 855.312 995.894 L 846.785 998.801 L 837.932 1001.545 L 828.730 1004.127 L 819.155 1006.549 L 809.176 1008.810 L 798.757 1010.912 L 787.856 1012.855 L 776.419 1014.641 L 764.380 1016.270 L 751.658 1017.741 L 738.145 1019.057 L 723.699 1020.217 L 708.124 1021.222 L 691.135 1022.071 L 672.295 1022.766 L 650.869 1023.306 L 625.414 1023.692 L 592.208 1023.923 L 512.000 1024.000 L 431.792 1023.923 L 398.586 1023.692 L 373.131 1023.306 L 351.705 1022.766 L 332.865 1022.071 L 315.876 1021.222 L 300.301 1020.217 L 285.855 1019.057 L 272.342 1017.741 L 259.620 1016.270 L 247.581 1014.641 L 236.144 1012.855 L 225.243 1010.912 L 214.824 1008.810 L 204.845 1006.549 L 195.270 1004.127 L 186.068 1001.545 L 177.215 998.801 L 168.688 995.894 L 160.469 992.823 L 152.542 989.586 L 144.891 986.182 L 137.505 982.609 L 130.373 978.867 L 123.484 974.952 L 116.830 970.864 L 110.404 966.599 L 104.198 962.156 L 98.206 957.531 L 92.423 952.722 L 86.842 947.726 L 81.461 942.539 L 76.274 937.158 L 71.278 931.577 L 66.469 925.794 L 61.844 919.802 L 57.401 913.596 L 53.136 907.170 L 49.048 900.516 L 45.133 893.627 L 41.391 886.495 L 37.818 879.109 L 34.414 871.458 L 31.177 863.531 L 28.106 855.312 L 25.199 846.785 L 22.455 837.932 L 19.873 828.730 L 17.451 819.155 L 15.190 809.176 L 13.088 798.757 L 11.145 787.856 L 9.359 776.419 L 7.730 764.380 L 6.259 751.658 L 4.943 738.145 L 3.783 723.699 L 2.778 708.124 L 1.929 691.135 L 1.234 672.295 L 0.694 650.869 L 0.308 625.414 L 0.077 592.208 L 0.000 512.000 L 0.077 431.792 L 0.308 398.586 L 0.694 373.131 L 1.234 351.705 L 1.929 332.865 L 2.778 315.876 L 3.783 300.301 L 4.943 285.855 L 6.259 272.342 L 7.730 259.620 L 9.359 247.581 L 11.145 236.144 L 13.088 225.243 L 15.190 214.824 L 17.451 204.845 L 19.873 195.270 L 22.455 186.068 L 25.199 177.215 L 28.106 168.688 L 31.177 160.469 L 34.414 152.542 L 37.818 144.891 L 41.391 137.505 L 45.133 130.373 L 49.048 123.484 L 53.136 116.830 L 57.401 110.404 L 61.844 104.198 L 66.469 98.206 L 71.278 92.423 L 76.274 86.842 L 81.461 81.461 L 86.842 76.274 L 92.423 71.278 L 98.206 66.469 L 104.198 61.844 L 110.404 57.401 L 116.830 53.136 L 123.484 49.048 L 130.373 45.133 L 137.505 41.391 L 144.891 37.818 L 152.542 34.414 L 160.469 31.177 L 168.688 28.106 L 177.215 25.199 L 186.068 22.455 L 195.270 19.873 L 204.845 17.451 L 214.824 15.190 L 225.243 13.088 L 236.144 11.145 L 247.581 9.359 L 259.620 7.730 L 272.342 6.259 L 285.855 4.943 L 300.301 3.783 L 315.876 2.778 L 332.865 1.929 L 351.705 1.234 L 373.131 0.694 L 398.586 0.308 L 431.792 0.077 L 512.000 0.000 L 592.208 0.077 L 625.414 0.308 L 650.869 0.694 L 672.295 1.234 L 691.135 1.929 L 708.124 2.778 L 723.699 3.783 L 738.145 4.943 L 751.658 6.259 L 764.380 7.730 L 776.419 9.359 L 787.856 11.145 L 798.757 13.088 L 809.176 15.190 L 819.155 17.451 L 828.730 19.873 L 837.932 22.455 L 846.785 25.199 L 855.312 28.106 L 863.531 31.177 L 871.458 34.414 L 879.109 37.818 L 886.495 41.391 L 893.627 45.133 L 900.516 49.048 L 907.170 53.136 L 913.596 57.401 L 919.802 61.844 L 925.794 66.469 L 931.577 71.278 L 937.158 76.274 L 942.539 81.461 L 947.726 86.842 L 952.722 92.423 L 957.531 98.206 L 962.156 104.198 L 966.599 110.404 L 970.864 116.830 L 974.952 123.484 L 978.867 130.373 L 982.609 137.505 L 986.182 144.891 L 989.586 152.542 L 992.823 160.469 L 995.894 168.688 L 998.801 177.215 L 1001.545 186.068 L 1004.127 195.270 L 1006.549 204.845 L 1008.810 214.824 L 1010.912 225.243 L 1012.855 236.144 L 1014.641 247.581 L 1016.270 259.620 L 1017.741 272.342 L 1019.057 285.855 L 1020.217 300.301 L 1021.222 315.876 L 1022.071 332.865 L 1022.766 351.705 L 1023.306 373.131 L 1023.692 398.586 L 1023.923 431.792 Z" />
    </clipPath>
  </defs>
  <g clip-path="url(#squircle)">
    <path d="M 1024.000 512.000 L 1023.923 592.208 L 1023.692 625.414 L 1023.306 650.869 L 1022.766 672.295 L 1022.071 691.135 L 1021.222 708.124 L 1020.217 723.699 L 1019.057 738.145 L 1017.741 751.658 L 1016.270 764.380 L 1014.641 776.419 L 1012.855 787.856 L 1010.912 798.757 L 1008.810 809.176 L 1006.549 819.155 L 1004.127 828.730 L 1001.545 837.932 L 998.801 846.785 L 995.894 855.312 L 992.823 863.531 L 989.586 871.458 L 986.182 879.109 L 982.609 886.495 L 978.867 893.627 L 974.952 900.516 L 970.864 907.170 L 966.599 913.596 L 962.156 919.802 L 957.531 925.794 L 952.722 931.577 L 947.726 937.158 L 942.539 942.539 L 937.158 947.726 L 931.577 952.722 L 925.794 957.531 L 919.802 962.156 L 913.596 966.599 L 907.170 970.864 L 900.516 974.952 L 893.627 978.867 L 886.495 982.609 L 879.109 986.182 L 871.458 989.586 L 863.531 992.823 L 855.312 995.894 L 846.785 998.801 L 837.932 1001.545 L 828.730 1004.127 L 819.155 1006.549 L 809.176 1008.810 L 798.757 1010.912 L 787.856 1012.855 L 776.419 1014.641 L 764.380 1016.270 L 751.658 1017.741 L 738.145 1019.057 L 723.699 1020.217 L 708.124 1021.222 L 691.135 1022.071 L 672.295 1022.766 L 650.869 1023.306 L 625.414 1023.692 L 592.208 1023.923 L 512.000 1024.000 L 431.792 1023.923 L 398.586 1023.692 L 373.131 1023.306 L 351.705 1022.766 L 332.865 1022.071 L 315.876 1021.222 L 300.301 1020.217 L 285.855 1019.057 L 272.342 1017.741 L 259.620 1016.270 L 247.581 1014.641 L 236.144 1012.855 L 225.243 1010.912 L 214.824 1008.810 L 204.845 1006.549 L 195.270 1004.127 L 186.068 1001.545 L 177.215 998.801 L 168.688 995.894 L 160.469 992.823 L 152.542 989.586 L 144.891 986.182 L 137.505 982.609 L 130.373 978.867 L 123.484 974.952 L 116.830 970.864 L 110.404 966.599 L 104.198 962.156 L 98.206 957.531 L 92.423 952.722 L 86.842 947.726 L 81.461 942.539 L 76.274 937.158 L 71.278 931.577 L 66.469 925.794 L 61.844 919.802 L 57.401 913.596 L 53.136 907.170 L 49.048 900.516 L 45.133 893.627 L 41.391 886.495 L 37.818 879.109 L 34.414 871.458 L 31.177 863.531 L 28.106 855.312 L 25.199 846.785 L 22.455 837.932 L 19.873 828.730 L 17.451 819.155 L 15.190 809.176 L 13.088 798.757 L 11.145 787.856 L 9.359 776.419 L 7.730 764.380 L 6.259 751.658 L 4.943 738.145 L 3.783 723.699 L 2.778 708.124 L 1.929 691.135 L 1.234 672.295 L 0.694 650.869 L 0.308 625.414 L 0.077 592.208 L 0.000 512.000 L 0.077 431.792 L 0.308 398.586 L 0.694 373.131 L 1.234 351.705 L 1.929 332.865 L 2.778 315.876 L 3.783 300.301 L 4.943 285.855 L 6.259 272.342 L 7.730 259.620 L 9.359 247.581 L 11.145 236.144 L 13.088 225.243 L 15.190 214.824 L 17.451 204.845 L 19.873 195.270 L 22.455 186.068 L 25.199 177.215 L 28.106 168.688 L 31.177 160.469 L 34.414 152.542 L 37.818 144.891 L 41.391 137.505 L 45.133 130.373 L 49.048 123.484 L 53.136 116.830 L 57.401 110.404 L 61.844 104.198 L 66.469 98.206 L 71.278 92.423 L 76.274 86.842 L 81.461 81.461 L 86.842 76.274 L 92.423 71.278 L 98.206 66.469 L 104.198 61.844 L 110.404 57.401 L 116.830 53.136 L 123.484 49.048 L 130.373 45.133 L 137.505 41.391 L 144.891 37.818 L 152.542 34.414 L 160.469 31.177 L 168.688 28.106 L 177.215 25.199 L 186.068 22.455 L 195.270 19.873 L 204.845 17.451 L 214.824 15.190 L 225.243 13.088 L 236.144 11.145 L 247.581 9.359 L 259.620 7.730 L 272.342 6.259 L 285.855 4.943 L 300.301 3.783 L 315.876 2.778 L 332.865 1.929 L 351.705 1.234 L 373.131 0.694 L 398.586 0.308 L 431.792 0.077 L 512.000 0.000 L 592.208 0.077 L 625.414 0.308 L 650.869 0.694 L 672.295 1.234 L 691.135 1.929 L 708.124 2.778 L 723.699 3.783 L 738.145 4.943 L 751.658 6.259 L 764.380 7.730 L 776.419 9.359 L 787.856 11.145 L 798.757 13.088 L 809.176 15.190 L 819.155 17.451 L 828.730 19.873 L 837.932 22.455 L 846.785 25.199 L 855.312 28.106 L 863.531 31.177 L 871.458 34.414 L 879.109 37.818 L 886.495 41.391 L 893.627 45.133 L 900.516 49.048 L 907.170 53.136 L 913.596 57.401 L 919.802 61.844 L 925.794 66.469 L 931.577 71.278 L 937.158 76.274 L 942.539 81.461 L 947.726 86.842 L 952.722 92.423 L 957.531 98.206 L 962.156 104.198 L 966.599 110.404 L 970.864 116.830 L 974.952 123.484 L 978.867 130.373 L 982.609 137.505 L 986.182 144.891 L 989.586 152.542 L 992.823 160.469 L 995.894 168.688 L 998.801 177.215 L 1001.545 186.068 L 1004.127 195.270 L 1006.549 204.845 L 1008.810 214.824 L 1010.912 225.243 L 1012.855 236.144 L 1014.641 247.581 L 1016.270 259.620 L 1017.741 272.342 L 1019.057 285.855 L 1020.217 300.301 L 1021.222 315.876 L 1022.071 332.865 L 1022.766 351.705 L 1023.306 373.131 L 1023.692 398.586 L 1023.923 431.792 Z" fill="#0D0A1A" />
    <g transform="translate(61.440 61.440)">
      <path d="M 901.000 450.500 L 900.932 521.074 L 900.729 550.291 L 900.389 572.688 L 899.914 591.541 L 899.303 608.118 L 898.555 623.066 L 897.671 636.771 L 896.651 649.481 L 895.493 661.371 L 894.198 672.565 L 892.765 683.157 L 891.194 693.221 L 889.484 702.813 L 887.635 711.980 L 885.645 720.761 L 883.515 729.186 L 881.242 737.282 L 878.828 745.072 L 876.270 752.574 L 873.568 759.806 L 870.719 766.781 L 867.724 773.513 L 864.581 780.012 L 861.288 786.287 L 857.844 792.349 L 854.246 798.203 L 850.494 803.857 L 846.584 809.318 L 842.515 814.590 L 838.284 819.679 L 833.888 824.589 L 829.324 829.324 L 824.589 833.888 L 819.679 838.284 L 814.590 842.515 L 809.318 846.584 L 803.857 850.494 L 798.203 854.246 L 792.349 857.844 L 786.287 861.288 L 780.012 864.581 L 773.513 867.724 L 766.781 870.719 L 759.806 873.568 L 752.574 876.270 L 745.072 878.828 L 737.282 881.242 L 729.186 883.515 L 720.761 885.645 L 711.980 887.635 L 702.813 889.484 L 693.221 891.194 L 683.157 892.765 L 672.565 894.198 L 661.371 895.493 L 649.481 896.651 L 636.771 897.671 L 623.066 898.555 L 608.118 899.303 L 591.541 899.914 L 572.688 900.389 L 550.291 900.729 L 521.074 900.932 L 450.500 901.000 L 379.926 900.932 L 350.709 900.729 L 328.312 900.389 L 309.459 899.914 L 292.882 899.303 L 277.934 898.555 L 264.229 897.671 L 251.519 896.651 L 239.629 895.493 L 228.435 894.198 L 217.843 892.765 L 207.779 891.194 L 198.187 889.484 L 189.020 887.635 L 180.239 885.645 L 171.814 883.515 L 163.718 881.242 L 155.928 878.828 L 148.426 876.270 L 141.194 873.568 L 134.219 870.719 L 127.487 867.724 L 120.988 864.581 L 114.713 861.288 L 108.651 857.844 L 102.797 854.246 L 97.143 850.494 L 91.682 846.584 L 86.410 842.515 L 81.321 838.284 L 76.411 833.888 L 71.676 829.324 L 67.112 824.589 L 62.716 819.679 L 58.485 814.590 L 54.416 809.318 L 50.506 803.857 L 46.754 798.203 L 43.156 792.349 L 39.712 786.287 L 36.419 780.012 L 33.276 773.513 L 30.281 766.781 L 27.432 759.806 L 24.730 752.574 L 22.172 745.072 L 19.758 737.282 L 17.485 729.186 L 15.355 720.761 L 13.365 711.980 L 11.516 702.813 L 9.806 693.221 L 8.235 683.157 L 6.802 672.565 L 5.507 661.371 L 4.349 649.481 L 3.329 636.771 L 2.445 623.066 L 1.697 608.118 L 1.086 591.541 L 0.611 572.688 L 0.271 550.291 L 0.068 521.074 L 0.000 450.500 L 0.068 379.926 L 0.271 350.709 L 0.611 328.312 L 1.086 309.459 L 1.697 292.882 L 2.445 277.934 L 3.329 264.229 L 4.349 251.519 L 5.507 239.629 L 6.802 228.435 L 8.235 217.843 L 9.806 207.779 L 11.516 198.187 L 13.365 189.020 L 15.355 180.239 L 17.485 171.814 L 19.758 163.718 L 22.172 155.928 L 24.730 148.426 L 27.432 141.194 L 30.281 134.219 L 33.276 127.487 L 36.419 120.988 L 39.712 114.713 L 43.156 108.651 L 46.754 102.797 L 50.506 97.143 L 54.416 91.682 L 58.485 86.410 L 62.716 81.321 L 67.112 76.411 L 71.676 71.676 L 76.411 67.112 L 81.321 62.716 L 86.410 58.485 L 91.682 54.416 L 97.143 50.506 L 102.797 46.754 L 108.651 43.156 L 114.713 39.712 L 120.988 36.419 L 127.487 33.276 L 134.219 30.281 L 141.194 27.432 L 148.426 24.730 L 155.928 22.172 L 163.718 19.758 L 171.814 17.485 L 180.239 15.355 L 189.020 13.365 L 198.187 11.516 L 207.779 9.806 L 217.843 8.235 L 228.435 6.802 L 239.629 5.507 L 251.519 4.349 L 264.229 3.329 L 277.934 2.445 L 292.882 1.697 L 309.459 1.086 L 328.312 0.611 L 350.709 0.271 L 379.926 0.068 L 450.500 0.000 L 521.074 0.068 L 550.291 0.271 L 572.688 0.611 L 591.541 1.086 L 608.118 1.697 L 623.066 2.445 L 636.771 3.329 L 649.481 4.349 L 661.371 5.507 L 672.565 6.802 L 683.157 8.235 L 693.221 9.806 L 702.813 11.516 L 711.980 13.365 L 720.761 15.355 L 729.186 17.485 L 737.282 19.758 L 745.072 22.172 L 752.574 24.730 L 759.806 27.432 L 766.781 30.281 L 773.513 33.276 L 780.012 36.419 L 786.287 39.712 L 792.349 43.156 L 798.203 46.754 L 803.857 50.506 L 809.318 54.416 L 814.590 58.485 L 819.679 62.716 L 824.589 67.112 L 829.324 71.676 L 833.888 76.411 L 838.284 81.321 L 842.515 86.410 L 846.584 91.682 L 850.494 97.143 L 854.246 102.797 L 857.844 108.651 L 861.288 114.713 L 864.581 120.988 L 867.724 127.487 L 870.719 134.219 L 873.568 141.194 L 876.270 148.426 L 878.828 155.928 L 881.242 163.718 L 883.515 171.814 L 885.645 180.239 L 887.635 189.020 L 889.484 198.187 L 891.194 207.779 L 892.765 217.843 L 894.198 228.435 L 895.493 239.629 L 896.651 251.519 L 897.671 264.229 L 898.555 277.934 L 899.303 292.882 L 899.914 309.459 L 900.389 328.312 L 900.729 350.709 L 900.932 379.926 Z" fill="none" stroke="#6B70A8" stroke-opacity="0.157" stroke-width="4" />
    </g>
    <rect x="215.040" y="259.413" width="593.920" height="163.840" fill="#4BA3F7" />
    <rect x="465.920" y="464.213" width="92.160" height="303.787" fill="#4BA3F7" />
  </g>
</svg>
